<mxfile host="app.diagrams.net" agent="Mozilla/5.0 (Macintosh; Intel Mac OS X 10_15_7) AppleWebKit/537.36 (KHTML, like Gecko) Chrome/128.0.0.0 Safari/537.36" version="24.7.15">
  <diagram name="Page-1" id="3iYelQWaVsfNK1PrzaXG">
    <mxGraphModel dx="1026" dy="650" grid="1" gridSize="10" guides="1" tooltips="1" connect="1" arrows="1" fold="1" page="1" pageScale="1" pageWidth="850" pageHeight="1100" math="0" shadow="0">
      <root>
        <mxCell id="0" />
        <mxCell id="1" parent="0" />
        <mxCell id="JcxCFcFDra7xKa4LYX2v-1" value="" style="rounded=1;whiteSpace=wrap;html=1;fillColor=none;dashed=1;strokeWidth=2;" vertex="1" parent="1">
          <mxGeometry x="130" y="130" width="640" height="100" as="geometry" />
        </mxCell>
        <mxCell id="JcxCFcFDra7xKa4LYX2v-2" value="" style="rounded=1;whiteSpace=wrap;html=1;fillColor=none;dashed=1;strokeWidth=2;" vertex="1" parent="1">
          <mxGeometry x="130" y="240" width="640" height="120" as="geometry" />
        </mxCell>
        <mxCell id="JcxCFcFDra7xKa4LYX2v-3" value="" style="rounded=1;whiteSpace=wrap;html=1;fillColor=none;dashed=1;strokeWidth=2;" vertex="1" parent="1">
          <mxGeometry x="130" y="400" width="640" height="170" as="geometry" />
        </mxCell>
        <mxCell id="JcxCFcFDra7xKa4LYX2v-4" value="ACK-1" style="rounded=1;whiteSpace=wrap;html=1;fillColor=none;dashed=1;strokeWidth=2;align=left;verticalAlign=top;" vertex="1" parent="1">
          <mxGeometry x="130" y="580" width="310" height="150" as="geometry" />
        </mxCell>
        <mxCell id="JcxCFcFDra7xKa4LYX2v-5" value="Cstar/PSD" style="rounded=1;whiteSpace=wrap;html=1;fillColor=none;strokeWidth=2;" vertex="1" parent="1">
          <mxGeometry x="130" y="370" width="640" height="30" as="geometry" />
        </mxCell>
        <mxCell id="JcxCFcFDra7xKa4LYX2v-6" value="ACMG Controller" style="rounded=1;whiteSpace=wrap;html=1;" vertex="1" parent="1">
          <mxGeometry x="200" y="155" width="120" height="60" as="geometry" />
        </mxCell>
        <mxCell id="JcxCFcFDra7xKa4LYX2v-7" value="Istiod" style="rounded=1;whiteSpace=wrap;html=1;" vertex="1" parent="1">
          <mxGeometry x="440" y="140" width="120" height="60" as="geometry" />
        </mxCell>
        <mxCell id="JcxCFcFDra7xKa4LYX2v-8" value="Open API" style="rounded=0;whiteSpace=wrap;html=1;" vertex="1" parent="1">
          <mxGeometry x="180" y="240" width="550" height="30" as="geometry" />
        </mxCell>
        <mxCell id="JcxCFcFDra7xKa4LYX2v-9" value="Istiod" style="rounded=1;whiteSpace=wrap;html=1;" vertex="1" parent="1">
          <mxGeometry x="430" y="150" width="120" height="60" as="geometry" />
        </mxCell>
        <mxCell id="JcxCFcFDra7xKa4LYX2v-10" value="Istiod" style="rounded=1;whiteSpace=wrap;html=1;" vertex="1" parent="1">
          <mxGeometry x="420" y="160" width="120" height="60" as="geometry" />
        </mxCell>
        <mxCell id="JcxCFcFDra7xKa4LYX2v-11" value="CLB" style="rounded=1;whiteSpace=wrap;html=1;" vertex="1" parent="1">
          <mxGeometry x="660" y="172.5" width="60" height="35" as="geometry" />
        </mxCell>
        <mxCell id="JcxCFcFDra7xKa4LYX2v-12" value="ASM" style="text;html=1;align=center;verticalAlign=middle;whiteSpace=wrap;rounded=0;" vertex="1" parent="1">
          <mxGeometry x="30" y="165" width="90" height="30" as="geometry" />
        </mxCell>
        <mxCell id="JcxCFcFDra7xKa4LYX2v-13" value="ACMG&lt;div&gt;Control Plane&lt;/div&gt;" style="text;html=1;align=center;verticalAlign=middle;whiteSpace=wrap;rounded=0;" vertex="1" parent="1">
          <mxGeometry x="30" y="270" width="90" height="30" as="geometry" />
        </mxCell>
        <mxCell id="JcxCFcFDra7xKa4LYX2v-14" value="ACMG&lt;div&gt;Data Plane&lt;/div&gt;" style="text;html=1;align=center;verticalAlign=middle;whiteSpace=wrap;rounded=0;" vertex="1" parent="1">
          <mxGeometry x="30" y="490" width="90" height="30" as="geometry" />
        </mxCell>
        <mxCell id="JcxCFcFDra7xKa4LYX2v-15" value="资源抽象" style="rounded=0;whiteSpace=wrap;html=1;" vertex="1" parent="1">
          <mxGeometry x="270" y="282" width="140" height="30" as="geometry" />
        </mxCell>
        <mxCell id="JcxCFcFDra7xKa4LYX2v-16" value="业务编排" style="rounded=0;whiteSpace=wrap;html=1;" vertex="1" parent="1">
          <mxGeometry x="420" y="281" width="140" height="30" as="geometry" />
        </mxCell>
        <mxCell id="JcxCFcFDra7xKa4LYX2v-17" value="Kubernetes Cluster" style="text;html=1;align=center;verticalAlign=middle;whiteSpace=wrap;rounded=0;" vertex="1" parent="1">
          <mxGeometry x="45" y="620" width="60" height="30" as="geometry" />
        </mxCell>
        <mxCell id="JcxCFcFDra7xKa4LYX2v-18" value="ACK-2" style="rounded=1;whiteSpace=wrap;html=1;fillColor=none;dashed=1;strokeWidth=2;verticalAlign=top;align=left;" vertex="1" parent="1">
          <mxGeometry x="460" y="580" width="310" height="150" as="geometry" />
        </mxCell>
        <mxCell id="JcxCFcFDra7xKa4LYX2v-20" style="edgeStyle=orthogonalEdgeStyle;rounded=0;orthogonalLoop=1;jettySize=auto;html=1;" edge="1" parent="1" source="JcxCFcFDra7xKa4LYX2v-10">
          <mxGeometry relative="1" as="geometry">
            <mxPoint x="660" y="190" as="targetPoint" />
          </mxGeometry>
        </mxCell>
        <mxCell id="JcxCFcFDra7xKa4LYX2v-21" value="ACMG instance" style="rounded=1;whiteSpace=wrap;html=1;align=left;verticalAlign=top;" vertex="1" parent="1">
          <mxGeometry x="160" y="420" width="220" height="140" as="geometry" />
        </mxCell>
        <mxCell id="JcxCFcFDra7xKa4LYX2v-24" value="" style="image;sketch=0;aspect=fixed;html=1;points=[];align=center;fontSize=12;image=img/lib/mscae/Kubernetes.svg;" vertex="1" parent="1">
          <mxGeometry x="120" y="710" width="30" height="28.8" as="geometry" />
        </mxCell>
        <mxCell id="JcxCFcFDra7xKa4LYX2v-26" value="" style="image;sketch=0;aspect=fixed;html=1;points=[];align=center;fontSize=12;image=img/lib/mscae/Kubernetes.svg;" vertex="1" parent="1">
          <mxGeometry x="450" y="710" width="30" height="28.8" as="geometry" />
        </mxCell>
        <mxCell id="JcxCFcFDra7xKa4LYX2v-28" value="Database" style="shape=cylinder3;whiteSpace=wrap;html=1;boundedLbl=1;backgroundOutline=1;size=15;" vertex="1" parent="1">
          <mxGeometry x="180" y="282" width="80" height="68" as="geometry" />
        </mxCell>
        <mxCell id="JcxCFcFDra7xKa4LYX2v-33" value="设备管理" style="rounded=0;whiteSpace=wrap;html=1;" vertex="1" parent="1">
          <mxGeometry x="270" y="321" width="140" height="30" as="geometry" />
        </mxCell>
        <mxCell id="JcxCFcFDra7xKa4LYX2v-34" value="配置管理" style="rounded=0;whiteSpace=wrap;html=1;" vertex="1" parent="1">
          <mxGeometry x="420" y="321" width="140" height="30" as="geometry" />
        </mxCell>
        <mxCell id="JcxCFcFDra7xKa4LYX2v-36" value="..." style="text;html=1;align=center;verticalAlign=middle;whiteSpace=wrap;rounded=0;" vertex="1" parent="1">
          <mxGeometry x="550" y="281" width="60" height="30" as="geometry" />
        </mxCell>
        <mxCell id="JcxCFcFDra7xKa4LYX2v-38" value="..." style="text;html=1;align=center;verticalAlign=middle;whiteSpace=wrap;rounded=0;" vertex="1" parent="1">
          <mxGeometry x="550" y="321" width="60" height="30" as="geometry" />
        </mxCell>
        <mxCell id="JcxCFcFDra7xKa4LYX2v-41" value="" style="rounded=1;whiteSpace=wrap;html=1;" vertex="1" parent="1">
          <mxGeometry x="305" y="609.2" width="125" height="90.8" as="geometry" />
        </mxCell>
        <mxCell id="JcxCFcFDra7xKa4LYX2v-45" value="ztunnel" style="rounded=1;whiteSpace=wrap;html=1;" vertex="1" parent="1">
          <mxGeometry x="360" y="620" width="60" height="30" as="geometry" />
        </mxCell>
        <mxCell id="JcxCFcFDra7xKa4LYX2v-46" value="istio-cni" style="rounded=1;whiteSpace=wrap;html=1;" vertex="1" parent="1">
          <mxGeometry x="360" y="660" width="60" height="30" as="geometry" />
        </mxCell>
        <mxCell id="JcxCFcFDra7xKa4LYX2v-47" value="App" style="rounded=1;whiteSpace=wrap;html=1;" vertex="1" parent="1">
          <mxGeometry x="310" y="620" width="40" height="30" as="geometry" />
        </mxCell>
        <mxCell id="JcxCFcFDra7xKa4LYX2v-48" value="App" style="rounded=1;whiteSpace=wrap;html=1;" vertex="1" parent="1">
          <mxGeometry x="310" y="660" width="40" height="30" as="geometry" />
        </mxCell>
        <mxCell id="JcxCFcFDra7xKa4LYX2v-49" value="" style="rounded=1;whiteSpace=wrap;html=1;" vertex="1" parent="1">
          <mxGeometry x="157.5" y="609.2" width="125" height="90.8" as="geometry" />
        </mxCell>
        <mxCell id="JcxCFcFDra7xKa4LYX2v-50" value="ztunnel" style="rounded=1;whiteSpace=wrap;html=1;" vertex="1" parent="1">
          <mxGeometry x="212.5" y="620" width="60" height="30" as="geometry" />
        </mxCell>
        <mxCell id="JcxCFcFDra7xKa4LYX2v-51" value="istio-cni" style="rounded=1;whiteSpace=wrap;html=1;" vertex="1" parent="1">
          <mxGeometry x="212.5" y="660" width="60" height="30" as="geometry" />
        </mxCell>
        <mxCell id="JcxCFcFDra7xKa4LYX2v-52" value="App" style="rounded=1;whiteSpace=wrap;html=1;" vertex="1" parent="1">
          <mxGeometry x="162.5" y="620" width="40" height="30" as="geometry" />
        </mxCell>
        <mxCell id="JcxCFcFDra7xKa4LYX2v-53" value="App" style="rounded=1;whiteSpace=wrap;html=1;" vertex="1" parent="1">
          <mxGeometry x="162.5" y="660" width="40" height="30" as="geometry" />
        </mxCell>
        <mxCell id="JcxCFcFDra7xKa4LYX2v-54" value="" style="rounded=1;whiteSpace=wrap;html=1;" vertex="1" parent="1">
          <mxGeometry x="480" y="609.2" width="125" height="90.8" as="geometry" />
        </mxCell>
        <mxCell id="JcxCFcFDra7xKa4LYX2v-55" value="ztunnel" style="rounded=1;whiteSpace=wrap;html=1;" vertex="1" parent="1">
          <mxGeometry x="535" y="620" width="60" height="30" as="geometry" />
        </mxCell>
        <mxCell id="JcxCFcFDra7xKa4LYX2v-56" value="istio-cni" style="rounded=1;whiteSpace=wrap;html=1;" vertex="1" parent="1">
          <mxGeometry x="535" y="660" width="60" height="30" as="geometry" />
        </mxCell>
        <mxCell id="JcxCFcFDra7xKa4LYX2v-57" value="App" style="rounded=1;whiteSpace=wrap;html=1;" vertex="1" parent="1">
          <mxGeometry x="485" y="620" width="40" height="30" as="geometry" />
        </mxCell>
        <mxCell id="JcxCFcFDra7xKa4LYX2v-58" value="App" style="rounded=1;whiteSpace=wrap;html=1;" vertex="1" parent="1">
          <mxGeometry x="485" y="660" width="40" height="30" as="geometry" />
        </mxCell>
        <mxCell id="JcxCFcFDra7xKa4LYX2v-59" value="" style="rounded=1;whiteSpace=wrap;html=1;" vertex="1" parent="1">
          <mxGeometry x="630" y="609.6" width="125" height="90.8" as="geometry" />
        </mxCell>
        <mxCell id="JcxCFcFDra7xKa4LYX2v-60" value="ztunnel" style="rounded=1;whiteSpace=wrap;html=1;" vertex="1" parent="1">
          <mxGeometry x="685" y="620.4" width="60" height="30" as="geometry" />
        </mxCell>
        <mxCell id="JcxCFcFDra7xKa4LYX2v-61" value="istio-cni" style="rounded=1;whiteSpace=wrap;html=1;" vertex="1" parent="1">
          <mxGeometry x="685" y="660.4" width="60" height="30" as="geometry" />
        </mxCell>
        <mxCell id="JcxCFcFDra7xKa4LYX2v-62" value="App" style="rounded=1;whiteSpace=wrap;html=1;" vertex="1" parent="1">
          <mxGeometry x="635" y="620.4" width="40" height="30" as="geometry" />
        </mxCell>
        <mxCell id="JcxCFcFDra7xKa4LYX2v-63" value="App" style="rounded=1;whiteSpace=wrap;html=1;" vertex="1" parent="1">
          <mxGeometry x="635" y="660.4" width="40" height="30" as="geometry" />
        </mxCell>
        <mxCell id="JcxCFcFDra7xKa4LYX2v-65" value="ENI" style="rounded=0;whiteSpace=wrap;html=1;" vertex="1" parent="1">
          <mxGeometry x="190" y="580" width="90" height="20" as="geometry" />
        </mxCell>
        <mxCell id="JcxCFcFDra7xKa4LYX2v-67" value="ENI" style="rounded=0;whiteSpace=wrap;html=1;" vertex="1" parent="1">
          <mxGeometry x="320" y="580" width="90" height="20" as="geometry" />
        </mxCell>
        <mxCell id="JcxCFcFDra7xKa4LYX2v-68" value="ENI" style="rounded=0;whiteSpace=wrap;html=1;" vertex="1" parent="1">
          <mxGeometry x="515" y="580" width="90" height="20" as="geometry" />
        </mxCell>
        <mxCell id="JcxCFcFDra7xKa4LYX2v-69" value="ENI" style="rounded=0;whiteSpace=wrap;html=1;" vertex="1" parent="1">
          <mxGeometry x="630" y="580" width="90" height="20" as="geometry" />
        </mxCell>
        <mxCell id="JcxCFcFDra7xKa4LYX2v-70" value="ECS" style="rounded=1;whiteSpace=wrap;html=1;" vertex="1" parent="1">
          <mxGeometry x="190" y="450" width="80" height="20" as="geometry" />
        </mxCell>
        <mxCell id="JcxCFcFDra7xKa4LYX2v-73" value="ECS" style="rounded=1;whiteSpace=wrap;html=1;" vertex="1" parent="1">
          <mxGeometry x="280" y="475" width="80" height="20" as="geometry" />
        </mxCell>
        <mxCell id="JcxCFcFDra7xKa4LYX2v-75" value="ECS" style="rounded=1;whiteSpace=wrap;html=1;" vertex="1" parent="1">
          <mxGeometry x="190" y="475" width="80" height="20" as="geometry" />
        </mxCell>
        <mxCell id="JcxCFcFDra7xKa4LYX2v-76" value="ECS" style="rounded=1;whiteSpace=wrap;html=1;" vertex="1" parent="1">
          <mxGeometry x="280" y="500" width="80" height="20" as="geometry" />
        </mxCell>
        <mxCell id="JcxCFcFDra7xKa4LYX2v-77" value="ECS" style="rounded=1;whiteSpace=wrap;html=1;" vertex="1" parent="1">
          <mxGeometry x="190" y="500" width="80" height="20" as="geometry" />
        </mxCell>
        <mxCell id="JcxCFcFDra7xKa4LYX2v-78" value="ECS" style="rounded=1;whiteSpace=wrap;html=1;" vertex="1" parent="1">
          <mxGeometry x="280" y="525" width="80" height="20" as="geometry" />
        </mxCell>
        <mxCell id="JcxCFcFDra7xKa4LYX2v-80" value="ECS" style="rounded=1;whiteSpace=wrap;html=1;" vertex="1" parent="1">
          <mxGeometry x="190" y="525" width="80" height="20" as="geometry" />
        </mxCell>
        <mxCell id="JcxCFcFDra7xKa4LYX2v-81" value="ECS" style="rounded=1;whiteSpace=wrap;html=1;arcSize=0;" vertex="1" parent="1">
          <mxGeometry x="280" y="450" width="80" height="20" as="geometry" />
        </mxCell>
        <mxCell id="JcxCFcFDra7xKa4LYX2v-82" value="" style="rounded=1;whiteSpace=wrap;html=1;" vertex="1" parent="1">
          <mxGeometry x="410" y="440" width="330" height="120" as="geometry" />
        </mxCell>
        <mxCell id="JcxCFcFDra7xKa4LYX2v-83" value="" style="endArrow=none;dashed=1;html=1;rounded=0;exitX=1;exitY=0;exitDx=0;exitDy=0;entryX=0;entryY=0;entryDx=0;entryDy=0;" edge="1" parent="1" source="JcxCFcFDra7xKa4LYX2v-81" target="JcxCFcFDra7xKa4LYX2v-82">
          <mxGeometry width="50" height="50" relative="1" as="geometry">
            <mxPoint x="400" y="530" as="sourcePoint" />
            <mxPoint x="450" y="480" as="targetPoint" />
          </mxGeometry>
        </mxCell>
        <mxCell id="JcxCFcFDra7xKa4LYX2v-84" value="" style="endArrow=none;dashed=1;html=1;rounded=0;exitX=1;exitY=1;exitDx=0;exitDy=0;entryX=0;entryY=1;entryDx=0;entryDy=0;" edge="1" parent="1" source="JcxCFcFDra7xKa4LYX2v-81" target="JcxCFcFDra7xKa4LYX2v-82">
          <mxGeometry width="50" height="50" relative="1" as="geometry">
            <mxPoint x="400" y="530" as="sourcePoint" />
            <mxPoint x="450" y="480" as="targetPoint" />
          </mxGeometry>
        </mxCell>
      </root>
    </mxGraphModel>
  </diagram>
</mxfile>
